# xmcd
#
# Track frame offsets: 
#        150
#        10311
#        19527
#        30609
#        41624
#        52643
#        61390
#        71274
#        86724
#        96124
#        107473
#        117475
#        136326
#        146270
#        157719
#        168779
#        180870
#        191695
#        204022
#        213099
#        224507
#        235582
#        246355
#
# Disc length: 3449 seconds
#
# Revision: 0
# Processed by: cddbd v1.5.2PL0 Copyright (c) Steve Scherf et al.
# Submitted via: ExactAudioCopy v0.95b3
#
DISCID=1e0d7717
DTITLE=Elvis Presley  - Original Recordings - Cd 2  FLAC
DYEAR=1900
DGENRE=
TTITLE0=Good Rockin' Tonight
TTITLE1=Blue Suede Shoes
TTITLE2=How's The World Treating You
TTITLE3=I Got A Woman
TTITLE4=Paralyzed
TTITLE5=Ready Teddy
TTITLE6=Let Me
TTITLE7=First In Line
TTITLE8=Blue Moon Of Kentucky
TTITLE9=Shake, Rattle And Roll
TTITLE10=You're A Heartbreaker
TTITLE11=Old Shep
TTITLE12=How Do You Think I Feel
TTITLE13=We're Gonna Move
TTITLE14=I'm Counting On You
TTITLE15=Milkcow Blues Boogie
TTITLE16=When My Blue Moon Turns To Gold Again
TTITLE17=I Love You Because
TTITLE18=Tutti Frutti
TTITLE19=I Forgot To Remember To Forget
TTITLE20=I'll Never Let You Go (Little Darlin')
TTITLE21=So Glad You're Mine
TTITLE22=Love Me Tender
EXTD=
EXTT0=
EXTT1=
EXTT2=
EXTT3=
EXTT4=
EXTT5=
EXTT6=
EXTT7=
EXTT8=
EXTT9=
EXTT10=
EXTT11=
EXTT12=
EXTT13=
EXTT14=
EXTT15=
EXTT16=
EXTT17=
EXTT18=
EXTT19=
EXTT20=
EXTT21=
EXTT22=
PLAYORDER=
